####
#
# OBJ File Generated by Meshlab
#
####
# Object blender_holder_smaller_inner.obj_vhacd.obj
#
# Vertices: 139
# Faces: 262
#
####
vn -0.448577 0.549392 -0.704946
v -0.033511 0.037497 -0.050181
vn 0.321036 -0.711393 0.625185
v -0.012865 0.000181 0.050181
vn 0.722208 -0.273063 0.635494
v -0.001993 0.012503 0.050181
vn -0.514534 0.514390 0.686045
v -0.035686 0.035685 0.050181
vn -0.577350 -0.577350 -0.577351
v -0.050181 0.000181 -0.050181
vn 0.577714 0.576900 -0.577436
v -0.001993 0.049814 -0.050181
vn 0.321036 -0.711393 -0.625185
v -0.012865 0.000181 -0.050181
vn -0.577350 -0.577351 0.577350
v -0.050181 0.000181 0.050181
vn 0.577351 0.577350 0.577350
v -0.001993 0.049819 0.050181
vn 0.722208 -0.273063 -0.635494
v -0.001993 0.012503 -0.050181
vn -0.672497 0.276687 -0.686435
v -0.046554 0.019388 -0.050181
vn -0.276428 0.672583 0.686454
v -0.019389 0.046554 0.050181
vn -0.672532 0.276639 0.686420
v -0.046554 0.019388 0.050181
vn -0.276428 0.672583 -0.686454
v -0.019389 0.046554 -0.050181
vn -0.592075 0.413557 -0.691677
v -0.041846 0.028076 -0.050181
vn -0.709891 0.106580 0.696201
v -0.049455 0.009243 0.050181
vn -0.106826 0.709810 -0.696245
v -0.009243 0.049454 -0.050181
vn -0.401071 0.595536 0.696045
v -0.028078 0.041841 0.050181
vn -0.696066 0.175275 -0.696254
v -0.049092 0.011055 -0.050181
vn -0.154329 0.707599 0.689555
v -0.011054 0.049090 0.050181
vn -0.596290 0.401026 0.695425
v -0.041846 0.028076 0.050181
vn -0.412246 0.591801 -0.692694
v -0.028078 0.041841 -0.050181
vn -0.518069 0.511048 -0.685882
v -0.035686 0.035685 -0.050181
vn -0.047786 0.719715 0.692624
v -0.005620 0.049819 0.050181
vn -0.717099 0.035815 -0.696050
v -0.050181 0.001993 -0.050181
vn -0.350608 0.621463 0.700613
v -0.026266 0.042934 0.050181
vn -0.621618 0.349457 0.701049
v -0.042931 0.026263 0.050181
vn -0.695959 0.175383 0.696335
v -0.049092 0.011050 0.050181
vn -0.175373 0.695941 -0.696355
v -0.011054 0.049090 -0.050181
vn -0.035558 0.717313 -0.695843
v -0.005620 0.049819 -0.050181
vn -0.717100 0.035815 0.696050
v -0.050181 0.001993 0.050181
vn -0.709865 0.106385 -0.696257
v -0.049455 0.009243 -0.050181
vn -0.559502 0.440308 0.702201
v -0.040757 0.029524 0.050181
vn -0.439853 0.560154 0.701966
v -0.029526 0.040757 0.050181
vn -0.350608 0.621463 -0.700613
v -0.026266 0.042934 -0.050181
vn -0.621618 0.349458 -0.701049
v -0.042931 0.026263 -0.050181
vn -0.576123 -0.428156 -0.696250
v -0.040757 -0.029522 -0.050181
vn 0.577350 -0.577350 0.577350
v -0.001993 -0.049819 0.050181
vn 0.723193 0.267575 0.636707
v -0.001993 -0.012505 0.050181
vn -0.577350 0.577350 0.577350
v -0.050181 0.000176 0.050181
vn 0.326465 0.709917 -0.624050
v -0.012865 0.000176 -0.050181
vn 0.577350 -0.577350 -0.577350
v -0.001993 -0.049819 -0.050181
vn -0.427815 -0.576953 0.695773
v -0.029526 -0.040760 0.050181
vn -0.577350 0.577350 -0.577350
v -0.050181 0.000176 -0.050181
vn 0.326465 0.709917 0.624050
v -0.012865 0.000176 0.050181
vn 0.723193 0.267575 -0.636707
v -0.001993 -0.012505 -0.050181
vn -0.672530 -0.276509 0.686473
v -0.046554 -0.019386 0.050181
vn -0.276684 -0.672552 -0.686382
v -0.019389 -0.046554 -0.050181
vn -0.696045 -0.175285 -0.696274
v -0.049092 -0.011051 -0.050181
vn -0.154326 -0.707604 0.689551
v -0.011054 -0.049090 0.050181
vn -0.427815 -0.576953 -0.695773
v -0.029526 -0.040760 -0.050181
vn -0.517014 -0.512852 0.685331
v -0.035686 -0.035684 0.050181
vn -0.276684 -0.672552 0.686381
v -0.019389 -0.046554 0.050181
vn -0.672531 -0.276510 -0.686472
v -0.046554 -0.019386 -0.050181
vn -0.709856 -0.106457 0.696256
v -0.049455 -0.009240 0.050181
vn -0.591842 -0.413807 0.691727
v -0.041846 -0.028078 0.050181
vn -0.106618 -0.709669 -0.696421
v -0.009243 -0.049452 -0.050181
vn -0.514624 -0.514293 -0.686050
v -0.035686 -0.035684 -0.050181
vn -0.366807 -0.617451 0.695849
v -0.026266 -0.042928 0.050181
vn -0.617398 -0.367122 -0.695731
v -0.042931 -0.026268 -0.050181
vn -0.047791 -0.719717 0.692620
v -0.005620 -0.049819 0.050181
vn -0.717108 -0.035850 -0.696039
v -0.050181 -0.001997 -0.050181
vn -0.366807 -0.617452 -0.695849
v -0.026266 -0.042928 -0.050181
vn -0.717108 -0.035850 0.696039
v -0.050181 -0.001997 0.050181
vn -0.175031 -0.696143 -0.696239
v -0.011054 -0.049090 -0.050181
vn -0.696045 -0.175285 0.696273
v -0.049092 -0.011051 0.050181
vn -0.036233 -0.717200 -0.695925
v -0.005620 -0.049819 -0.050181
vn -0.709856 -0.106457 -0.696256
v -0.049455 -0.009240 -0.050181
vn -0.621673 -0.349616 0.700922
v -0.042931 -0.026268 0.050181
vn 0.576502 0.427910 0.696088
v 0.040759 0.029526 0.050181
vn -0.577350 0.577350 -0.577350
v -0.001993 0.050181 -0.050181
vn 0.035979 0.717139 -0.696000
v 0.001996 0.050181 -0.050181
vn -0.255583 -0.725168 -0.639382
v 0.012864 0.000543 -0.050181
vn -0.706524 -0.338285 0.621600
v -0.001993 0.012501 0.050181
vn 0.577349 -0.577351 -0.577351
v 0.050181 0.000543 -0.050181
vn 0.577350 -0.577350 0.577350
v 0.050181 0.000543 0.050181
vn -0.577350 0.577350 0.577351
v -0.001993 0.050181 0.050181
vn 0.427992 0.576330 -0.696180
v 0.029528 0.040755 -0.050181
vn -0.706524 -0.338285 -0.621600
v -0.001993 0.012501 -0.050181
vn -0.255583 -0.725168 0.639382
v 0.012864 0.000543 0.050181
vn 0.276574 0.672538 0.686439
v 0.019385 0.046556 0.050181
vn 0.672507 0.276602 -0.686459
v 0.046555 0.019386 -0.050181
vn 0.696066 0.175275 0.696255
v 0.049093 0.011053 0.050181
vn 0.174673 0.696388 -0.696085
v 0.011051 0.049093 -0.050181
vn 0.559754 0.440150 -0.702099
v 0.040759 0.029526 -0.050181
vn 0.512910 0.517084 0.685235
v 0.035687 0.035687 0.050181
vn 0.105907 0.709706 0.696492
v 0.009243 0.049452 0.050181
vn 0.276574 0.672538 -0.686440
v 0.019385 0.046556 -0.050181
vn 0.672507 0.276602 0.686459
v 0.046555 0.019386 0.050181
vn 0.413828 0.591645 0.691884
v 0.028078 0.041843 0.050181
vn 0.709876 0.106362 -0.696249
v 0.049456 0.009241 -0.050181
vn 0.514436 0.514554 -0.685995
v 0.035687 0.035687 -0.050181
vn 0.621660 0.349488 -0.700997
v 0.042934 0.026261 -0.050181
vn 0.366958 0.617395 -0.695820
v 0.026265 0.042932 -0.050181
vn 0.617471 0.366687 0.695895
v 0.042934 0.026261 0.050181
vn 0.035979 0.717139 0.696001
v 0.001996 0.050181 0.050181
vn 0.717093 0.035790 0.696058
v 0.050181 0.001996 0.050181
vn 0.174673 0.696388 0.696084
v 0.011051 0.049093 0.050181
vn 0.696067 0.175275 -0.696254
v 0.049093 0.011053 -0.050181
vn 0.709876 0.106362 0.696249
v 0.049456 0.009241 0.050181
vn 0.105907 0.709706 -0.696492
v 0.009243 0.049452 -0.050181
vn 0.717094 0.035790 -0.696057
v 0.050181 0.001996 -0.050181
vn 0.350000 0.621539 0.700849
v 0.026265 0.042932 0.050181
vn 0.596323 0.400772 -0.695543
v 0.041846 0.028078 -0.050181
vn 0.515519 -0.515504 0.684467
v 0.035687 -0.035688 0.050181
vn -0.711122 0.322046 -0.624973
v -0.001993 -0.012500 -0.050181
vn -0.272079 0.722373 -0.635728
v 0.012864 0.000539 -0.050181
vn -0.711122 0.322046 0.624973
v -0.001993 -0.012500 0.050181
vn -0.577021 -0.577745 -0.577284
v -0.001993 -0.050181 -0.050181
vn 0.577322 0.577384 -0.577345
v 0.050181 0.000543 -0.050181
vn 0.577322 0.577384 0.577345
v 0.050181 0.000543 0.050181
vn -0.577021 -0.577745 0.577284
v -0.001993 -0.050181 0.050181
vn 0.400340 -0.596766 -0.695412
v 0.028078 -0.041845 -0.050181
vn -0.272079 0.722373 0.635728
v 0.012864 0.000539 0.050181
vn 0.672513 -0.276450 -0.686514
v 0.046555 -0.019382 -0.050181
vn 0.276830 -0.672507 0.686367
v 0.019385 -0.046557 0.050181
vn 0.672543 -0.276517 0.686458
v 0.046555 -0.019387 0.050181
vn 0.175188 -0.696085 -0.696258
v 0.011051 -0.049094 -0.050181
vn 0.576345 -0.428112 -0.696094
v 0.040759 -0.029526 -0.050181
vn 0.709912 -0.106541 -0.696185
v 0.049456 -0.009243 -0.050181
vn 0.106082 -0.709983 0.696183
v 0.009243 -0.049456 0.050181
vn 0.695963 -0.175397 0.696327
v 0.049093 -0.011050 0.050181
vn 0.591686 -0.413803 0.691863
v 0.041846 -0.028076 0.050181
vn 0.413179 -0.592459 0.691575
v 0.028078 -0.041845 0.050181
vn 0.276830 -0.672506 -0.686368
v 0.019385 -0.046557 -0.050181
vn 0.514434 -0.514414 -0.686102
v 0.035687 -0.035683 -0.050181
vn 0.035975 -0.716877 -0.696271
v 0.001996 -0.050176 -0.050181
vn 0.717089 -0.035770 0.696063
v 0.050181 -0.001994 0.050181
vn 0.617541 -0.366742 -0.695804
v 0.042934 -0.026264 -0.050181
vn 0.035974 -0.716877 0.696271
v 0.001996 -0.050176 0.050181
vn 0.717089 -0.035770 -0.696063
v 0.050181 -0.001994 -0.050181
vn 0.349141 -0.621582 -0.701239
v 0.026265 -0.042927 -0.050181
vn 0.695964 -0.175456 -0.696311
v 0.049093 -0.011050 -0.050181
vn 0.175188 -0.696084 0.696258
v 0.011051 -0.049094 0.050181
vn 0.106082 -0.709983 -0.696183
v 0.009243 -0.049456 -0.050181
vn 0.440220 -0.559780 -0.702035
v 0.029528 -0.040757 -0.050181
vn 0.709912 -0.106541 0.696185
v 0.049456 -0.009243 0.050181
vn 0.621595 -0.349900 0.700849
v 0.042934 -0.026264 0.050181
vn 0.349141 -0.621582 0.701239
v 0.026265 -0.042927 0.050181
# 139 vertices, 0 vertices normals

f 27//27 15//15 36//36
f 2//2 3//3 4//4
f 5//5 1//1 6//6
f 3//3 2//2 7//7
f 2//2 5//5 7//7
f 5//5 6//6 7//7
f 2//2 4//4 8//8
f 5//5 2//2 8//8
f 4//4 3//3 9//9
f 3//3 6//6 9//9
f 6//6 3//3 10//10
f 3//3 7//7 10//10
f 7//7 6//6 10//10
f 1//1 5//5 11//11
f 4//4 9//9 12//12
f 8//8 4//4 13//13
f 6//6 1//1 14//14
f 1//1 11//11 15//15
f 8//8 13//13 16//16
f 6//6 14//14 17//17
f 4//4 12//12 18//18
f 11//11 5//5 19//19
f 13//13 11//11 19//19
f 12//12 9//9 20//20
f 14//14 12//12 20//20
f 13//13 4//4 21//21
f 14//14 1//1 22//22
f 4//4 1//1 23//23
f 1//1 15//15 23//23
f 20//20 9//9 24//24
f 17//17 20//20 24//24
f 5//5 8//8 25//25
f 19//19 5//5 25//25
f 12//12 14//14 26//26
f 18//18 12//12 26//26
f 22//22 18//18 26//26
f 11//11 13//13 27//27
f 13//13 21//21 27//27
f 21//21 15//15 27//27
f 16//16 13//13 28//28
f 13//13 19//19 28//28
f 19//19 16//16 28//28
f 17//17 14//14 29//29
f 14//14 20//20 29//29
f 20//20 17//17 29//29
f 9//9 6//6 30//30
f 6//6 17//17 30//30
f 24//24 9//9 30//30
f 17//17 24//24 30//30
f 8//8 16//16 31//31
f 25//25 8//8 31//31
f 16//16 25//25 31//31
f 16//16 19//19 32//32
f 25//25 16//16 32//32
f 19//19 25//25 32//32
f 21//21 4//4 33//33
f 15//15 21//21 33//33
f 4//4 23//23 33//33
f 23//23 15//15 33//33
f 1//1 4//4 34//34
f 4//4 18//18 34//34
f 22//22 1//1 34//34
f 18//18 22//22 34//34
f 14//14 22//22 35//35
f 26//26 14//14 35//35
f 22//22 26//26 35//35
f 15//15 11//11 36//36
f 11//11 27//27 36//36
f 60//60 56//56 69//69
f 38//38 39//39 40//40
f 39//39 38//38 42//42
f 37//37 41//41 42//42
f 38//38 40//40 43//43
f 41//41 37//37 44//44
f 40//40 41//41 44//44
f 40//40 39//39 45//45
f 41//41 40//40 45//45
f 39//39 41//41 45//45
f 41//41 39//39 46//46
f 39//39 42//42 46//46
f 42//42 41//41 46//46
f 43//43 40//40 47//47
f 37//37 42//42 48//48
f 44//44 37//37 49//49
f 38//38 43//43 50//50
f 37//37 48//48 51//51
f 43//43 47//47 52//52
f 51//51 43//43 52//52
f 50//50 43//43 53//53
f 48//48 50//50 53//53
f 49//49 37//37 54//54
f 47//47 49//49 54//54
f 47//47 40//40 55//55
f 37//37 52//52 56//56
f 52//52 47//47 56//56
f 48//48 42//42 57//57
f 37//37 51//51 58//58
f 52//52 37//37 58//58
f 51//51 52//52 58//58
f 43//43 51//51 59//59
f 53//53 43//43 59//59
f 48//48 53//53 59//59
f 54//54 37//37 60//60
f 47//47 54//54 60//60
f 37//37 56//56 60//60
f 42//42 38//38 61//61
f 38//38 50//50 61//61
f 50//50 57//57 61//61
f 40//40 44//44 62//62
f 44//44 49//49 62//62
f 51//51 48//48 63//63
f 59//59 51//51 63//63
f 48//48 59//59 63//63
f 55//55 40//40 64//64
f 40//40 62//62 64//64
f 62//62 55//55 64//64
f 50//50 48//48 65//65
f 48//48 57//57 65//65
f 57//57 50//50 65//65
f 49//49 47//47 66//66
f 47//47 55//55 66//66
f 55//55 49//49 66//66
f 57//57 42//42 67//67
f 42//42 61//61 67//67
f 61//61 57//57 67//67
f 49//49 55//55 68//68
f 62//62 49//49 68//68
f 55//55 62//62 68//68
f 56//56 47//47 69//69
f 47//47 60//60 69//69
f 95//95 93//93 104//104
f 71//71 72//72 73//73
f 73//73 72//72 75//75
f 70//70 74//74 76//76
f 73//73 75//75 76//76
f 72//72 71//71 77//77
f 74//74 70//70 77//77
f 71//71 74//74 77//77
f 75//75 72//72 78//78
f 71//71 73//73 79//79
f 73//73 74//74 79//79
f 74//74 71//71 79//79
f 74//74 73//73 80//80
f 76//76 74//74 80//80
f 73//73 76//76 80//80
f 77//77 70//70 81//81
f 75//75 78//78 82//82
f 70//70 76//76 83//83
f 78//78 72//72 84//84
f 82//82 78//78 85//85
f 81//81 70//70 86//86
f 70//70 85//85 86//86
f 77//77 81//81 87//87
f 78//78 84//84 88//88
f 84//84 81//81 88//88
f 70//70 83//83 89//89
f 83//83 82//82 89//89
f 81//81 86//86 90//90
f 86//86 78//78 90//90
f 75//75 82//82 91//91
f 85//85 78//78 92//92
f 78//78 86//86 92//92
f 86//86 85//85 92//92
f 82//82 85//85 93//93
f 89//89 82//82 93//93
f 78//78 88//88 94//94
f 88//88 81//81 94//94
f 90//90 78//78 94//94
f 70//70 89//89 95//95
f 89//89 93//93 95//95
f 72//72 77//77 96//96
f 87//87 72//72 96//96
f 77//77 87//87 96//96
f 76//76 75//75 97//97
f 83//83 76//76 97//97
f 81//81 84//84 98//98
f 87//87 81//81 98//98
f 84//84 87//87 98//98
f 82//82 83//83 99//99
f 91//91 82//82 99//99
f 83//83 91//91 99//99
f 91//91 83//83 100//100
f 83//83 97//97 100//100
f 97//97 91//91 100//100
f 84//84 72//72 101//101
f 72//72 87//87 101//101
f 87//87 84//84 101//101
f 75//75 91//91 102//102
f 97//97 75//75 102//102
f 91//91 97//97 102//102
f 81//81 90//90 103//103
f 94//94 81//81 103//103
f 90//90 94//94 103//103
f 85//85 70//70 104//104
f 93//93 85//85 104//104
f 70//70 95//95 104//104
f 116//116 132//132 139//139
f 107//107 106//106 108//108
f 106//106 107//107 109//109
f 108//108 106//106 109//109
f 109//109 107//107 110//110
f 108//108 105//105 111//111
f 110//110 107//107 111//111
f 105//105 108//108 112//112
f 108//108 109//109 112//112
f 109//109 110//110 113//113
f 107//107 108//108 114//114
f 111//111 107//107 114//114
f 108//108 111//111 114//114
f 113//113 110//110 115//115
f 105//105 112//112 116//116
f 111//111 105//105 117//117
f 109//109 113//113 118//118
f 113//113 115//115 119//119
f 115//115 110//110 120//120
f 116//116 112//112 121//121
f 111//111 117//117 122//122
f 117//117 105//105 123//123
f 105//105 119//119 123//123
f 105//105 116//116 124//124
f 118//118 113//113 125//125
f 116//116 118//118 125//125
f 119//119 105//105 126//126
f 113//113 119//119 126//126
f 112//112 109//109 127//127
f 109//109 118//118 127//127
f 110//110 111//111 128//128
f 111//111 122//122 128//128
f 115//115 117//117 129//129
f 119//119 115//115 129//129
f 123//123 119//119 129//129
f 121//121 112//112 130//130
f 112//112 127//127 130//130
f 127//127 121//121 130//130
f 120//120 110//110 131//131
f 110//110 128//128 131//131
f 128//128 120//120 131//131
f 113//113 124//124 132//132
f 125//125 113//113 132//132
f 116//116 125//125 132//132
f 117//117 115//115 133//133
f 115//115 120//120 133//133
f 122//122 117//117 133//133
f 120//120 122//122 133//133
f 118//118 116//116 134//134
f 116//116 121//121 134//134
f 121//121 118//118 134//134
f 118//118 121//121 135//135
f 127//127 118//118 135//135
f 121//121 127//127 135//135
f 105//105 124//124 136//136
f 124//124 113//113 136//136
f 126//126 105//105 136//136
f 113//113 126//126 136//136
f 122//122 120//120 137//137
f 120//120 128//128 137//137
f 128//128 122//122 137//137
f 117//117 123//123 138//138
f 129//129 117//117 138//138
f 123//123 129//129 138//138
f 124//124 116//116 139//139
f 132//132 124//124 139//139
# 262 faces, 0 coords texture

# End of File
